<svg width="28" height="28" viewBox="0 0 28 28" fill="none" xmlns="http://www.w3.org/2000/svg">
<g id="list">
<mask id="mask0_32_22187" style="mask-type:alpha" maskUnits="userSpaceOnUse" x="0" y="0" width="28" height="28">
<rect id="Bounding box" width="28" height="28" fill="#D9D9D9"/>
</mask>
<g mask="url(#mask0_32_22187)">
<path id="list_2" d="M9.16667 10.4974C8.61438 10.4974 8.16667 10.0497 8.16667 9.4974V9.16406C8.16667 8.61178 8.61438 8.16406 9.16667 8.16406H23.5C24.0523 8.16406 24.5 8.61178 24.5 9.16406V9.4974C24.5 10.0497 24.0523 10.4974 23.5 10.4974H9.16667ZM9.16667 15.1641C8.61438 15.1641 8.16667 14.7163 8.16667 14.1641V13.8307C8.16667 13.2784 8.61438 12.8307 9.16667 12.8307H23.5C24.0523 12.8307 24.5 13.2784 24.5 13.8307V14.1641C24.5 14.7163 24.0523 15.1641 23.5 15.1641H9.16667ZM9.16667 19.8307C8.61438 19.8307 8.16667 19.383 8.16667 18.8307V18.4974C8.16667 17.9451 8.61438 17.4974 9.16667 17.4974H23.5C24.0523 17.4974 24.5 17.9451 24.5 18.4974V18.8307C24.5 19.383 24.0523 19.8307 23.5 19.8307H9.16667ZM4.66667 10.4974C4.33611 10.4974 4.05903 10.3856 3.83542 10.162C3.61181 9.93837 3.5 9.66128 3.5 9.33073C3.5 9.00017 3.61181 8.72309 3.83542 8.49948C4.05903 8.27587 4.33611 8.16406 4.66667 8.16406C4.99722 8.16406 5.27431 8.27587 5.49792 8.49948C5.72153 8.72309 5.83333 9.00017 5.83333 9.33073C5.83333 9.66128 5.72153 9.93837 5.49792 10.162C5.27431 10.3856 4.99722 10.4974 4.66667 10.4974ZM4.66667 15.1641C4.33611 15.1641 4.05903 15.0523 3.83542 14.8286C3.61181 14.605 3.5 14.328 3.5 13.9974C3.5 13.6668 3.61181 13.3898 3.83542 13.1661C4.05903 12.9425 4.33611 12.8307 4.66667 12.8307C4.99722 12.8307 5.27431 12.9425 5.49792 13.1661C5.72153 13.3898 5.83333 13.6668 5.83333 13.9974C5.83333 14.328 5.72153 14.605 5.49792 14.8286C5.27431 15.0523 4.99722 15.1641 4.66667 15.1641ZM4.66667 19.8307C4.33611 19.8307 4.05903 19.7189 3.83542 19.4953C3.61181 19.2717 3.5 18.9946 3.5 18.6641C3.5 18.3335 3.61181 18.0564 3.83542 17.8328C4.05903 17.6092 4.33611 17.4974 4.66667 17.4974C4.99722 17.4974 5.27431 17.6092 5.49792 17.8328C5.72153 18.0564 5.83333 18.3335 5.83333 18.6641C5.83333 18.9946 5.72153 19.2717 5.49792 19.4953C5.27431 19.7189 4.99722 19.8307 4.66667 19.8307Z" fill="#1B5175"/>
</g>
</g>
</svg>
